<?xml version="1.0" encoding="UTF-8" standalone="no"?>
<svg width="200" height="200" viewBox="0 0 200 200" xmlns="http://www.w3.org/2000/svg">
  <!-- Fond du cercle -->
  <circle cx="100" cy="100" r="95" fill="#6B4FBB" />
  
  <!-- Contour du cercle -->
  <circle cx="100" cy="100" r="95" fill="none" stroke="#FFFFFF" stroke-width="3" />
  
  <!-- Tête du chat -->
  <circle cx="100" cy="110" r="60" fill="#FFFFFF" />
  
  <!-- Oreilles -->
  <polygon points="55,60 70,95 40,95" fill="#FFFFFF" />
  <polygon points="145,60 160,95 130,95" fill="#FFFFFF" />
  
  <!-- Museau -->
  <circle cx="100" cy="125" r="20" fill="#FFD0E0" />
  
  <!-- Yeux -->
  <ellipse cx="80" cy="100" rx="10" ry="15" fill="#000000" />
  <ellipse cx="120" cy="100" rx="10" ry="15" fill="#000000" />
  
  <!-- Reflets dans les yeux -->
  <circle cx="83" cy="95" r="3" fill="#FFFFFF" />
  <circle cx="123" cy="95" r="3" fill="#FFFFFF" />
  
  <!-- Nez -->
  <polygon points="100,120 95,125 105,125" fill="#FF6B6B" />
  
  <!-- Moustaches -->
  <line x1="85" y1="125" x2="55" y2="120" stroke="#000000" stroke-width="2" />
  <line x1="85" y1="130" x2="55" y2="135" stroke="#000000" stroke-width="2" />
  <line x1="115" y1="125" x2="145" y2="120" stroke="#000000" stroke-width="2" />
  <line x1="115" y1="130" x2="145" y2="135" stroke="#000000" stroke-width="2" />
  
  <!-- Texte NekoScript -->
  <text x="100" y="190" font-family="Arial, sans-serif" font-size="20" font-weight="bold" text-anchor="middle" fill="#FFFFFF">NekoScript</text>
  
  <!-- Symbole de code {} -->
  <text x="100" y="75" font-family="monospace" font-size="30" font-weight="bold" text-anchor="middle" fill="#6B4FBB">{}</text>
</svg>